<svg xmlns="http://www.w3.org/2000/svg" xmlns:xlink="http://www.w3.org/1999/xlink" x="0" y="0" width="207" height="181"
        style="
        width:207px;
        height:181px;
        background: transparent;
        fill: none;
">


        <svg xmlns="http://www.w3.org/2000/svg" class="role-diagram-draw-area">
                <g class="shapes-region" style="stroke: black; fill: none;">
                        <g class="arrow-line">
                                <path class="connection real" stroke-dasharray=""
                                        d="  M18.5,51.5 C62.25,52.75 76.75,85.25 118.25,151.75"
                                        style="stroke: rgb(0, 0, 0); stroke-width: 1; fill: none; fill-opacity: 1;" />
                        </g>
                        <g class="arrow-line">
                                <path class="connection real" stroke-dasharray=""
                                        d="  M18.45,151.58 C58.75,146.75 98.75,95.75 118.75,52.25"
                                        style="stroke: rgb(0, 0, 0); stroke-width: 1; fill: none; fill-opacity: 1;" />
                        </g>
                        <g class="arrow-line">
                                <path class="connection real" stroke-dasharray="" d="  M118.75,52.25 L184.25,52.25"
                                        style="stroke: rgb(0, 0, 0); stroke-width: 1; fill: none; fill-opacity: 1;" />
                        </g>
                        <g class="arrow-line">
                                <path class="connection real" stroke-dasharray="6 6" d="  M118.25,33.25 L118.25,151.75"
                                        style="stroke: rgb(0, 0, 0); stroke-width: 1; fill: none; fill-opacity: 1;" />
                        </g>
                        <g class="arrow-line">
                                <path class="connection real" stroke-dasharray="" d="  M18.45,151.58 L18.45,4.25"
                                        style="stroke: rgb(0, 0, 0); stroke-width: 1; fill: none; fill-opacity: 1;" />
                                <g stroke="#000"
                                        transform="matrix(3.061616997868383e-16,1,-1,3.061616997868383e-16,18.44999999999999,2.25)"
                                        style="stroke: rgb(0, 0, 0); stroke-width: 1;">
                                        <path d=" M10.93,-3.29 Q4.96,-0.45 0,0 Q4.96,0.45 10.93,3.29" />
                                </g>
                        </g>
                        <g class="arrow-line">
                                <path class="connection real" stroke-dasharray="" d="  M18.45,151.58 L186.25,151.58"
                                        style="stroke: rgb(0, 0, 0); stroke-width: 1; fill: none; fill-opacity: 1;" />
                                <g stroke="#000"
                                        transform="matrix(-1,1.2246467991473532e-16,-1.2246467991473532e-16,-1,188.24999999999997,151.57500000000007)"
                                        style="stroke: rgb(0, 0, 0); stroke-width: 1;">
                                        <path d=" M10.93,-3.29 Q4.96,-0.45 0,0 Q4.96,0.45 10.93,3.29" />
                                </g>
                        </g>
                        <g />
                </g>
                <g />
                <g />
                <g />
        </svg>
        <svg xmlns="http://www.w3.org/2000/svg" xmlns:xlink="http://www.w3.org/1999/xlink" width="205" height="179"
                style="width:205px;height:179px;font-family:Asana-Math, Asana;background:transparent;">
                <g>
                        <g>
                                <g>
                                        <g transform="matrix(1,0,0,1,4,54)">
                                                <path transform="matrix(0.0085,0,0,-0.0085,0,0)"
                                                        d="M418 -3L418 27L366 30C311 33 301 44 301 96L301 700L60 598L67 548L217 614L217 96C217 44 206 33 152 30L96 27L96 -3C250 0 250 0 261 0C292 0 402 -3 418 -3ZM623 111C593 111 566 83 566 53C566 23 593 -5 622 -5C654 -5 682 22 682 53C682 83 654 111 623 111ZM1011 689C856 689 777 566 777 324C777 207 798 106 833 57C868 8 924 -20 986 -20C1137 -20 1213 110 1213 366C1213 585 1148 689 1011 689ZM993 654C1090 654 1129 556 1129 316C1129 103 1091 15 999 15C902 15 861 116 861 360C861 571 898 654 993 654Z"
                                                        stroke="rgb(0,0,0)" stroke-opacity="1" stroke-width="8"
                                                        fill="rgb(0,0,0)" fill-opacity="1"></path>
                                        </g>
                                </g>
                        </g>
                </g>
                <g>
                        <g>
                                <g>
                                        <g transform="matrix(1,0,0,1,6.5,160.5)">
                                                <path transform="matrix(0.0085,0,0,-0.0085,0,0)"
                                                        d="M263 689C108 689 29 566 29 324C29 207 50 106 85 57C120 8 176 -20 238 -20C389 -20 465 110 465 366C465 585 400 689 263 689ZM245 654C342 654 381 556 381 316C381 103 343 15 251 15C154 15 113 116 113 360C113 571 150 654 245 654Z"
                                                        stroke="rgb(0,0,0)" stroke-opacity="1" stroke-width="8"
                                                        fill="rgb(0,0,0)" fill-opacity="1"></path>
                                        </g>
                                </g>
                        </g>
                </g>
                <g>
                        <g>
                                <g>
                                        <g transform="matrix(1,0,0,1,112.5,161)">
                                                <path transform="matrix(0.0085,0,0,-0.0085,0,0)"
                                                        d="M418 -3L418 27L366 30C311 33 301 44 301 96L301 700L60 598L67 548L217 614L217 96C217 44 206 33 152 30L96 27L96 -3C250 0 250 0 261 0C292 0 402 -3 418 -3ZM623 111C593 111 566 83 566 53C566 23 593 -5 622 -5C654 -5 682 22 682 53C682 83 654 111 623 111ZM1011 689C856 689 777 566 777 324C777 207 798 106 833 57C868 8 924 -20 986 -20C1137 -20 1213 110 1213 366C1213 585 1148 689 1011 689ZM993 654C1090 654 1129 556 1129 316C1129 103 1091 15 999 15C902 15 861 116 861 360C861 571 898 654 993 654Z"
                                                        stroke="rgb(0,0,0)" stroke-opacity="1" stroke-width="8"
                                                        fill="rgb(0,0,0)" fill-opacity="1"></path>
                                        </g>
                                </g>
                        </g>
                </g>
                <g>
                        <g>
                                <g>
                                        <g transform="matrix(1,0,0,1,28,44.5)">
                                                <path transform="matrix(0.0085,0,0,-0.0085,0,0)"
                                                        d="M582 103L237 692L75 692L70 664L105 662C150 660 184 615 185 606L92 102C80 40 74 32 38 28L7 25L2 -3L113 0C125 0 126 0 223 -3L228 25L186 28C146 31 137 39 137 72C137 80 138 91 140 102L220 566L558 -11L608 -11L702 542C723 655 725 659 762 662L799 664L802 691L589 692L584 664L631 662C657 661 667 654 667 638C667 631 584 116 582 103Z"
                                                        stroke="rgb(0,0,0)" stroke-opacity="1" stroke-width="8"
                                                        fill="rgb(0,0,0)" fill-opacity="1"></path>
                                        </g>
                                </g>
                                <g>
                                        <g>
                                                <g>
                                                        <g>
                                                                <g transform="matrix(1,0,0,1,34.859375,47.0125)">
                                                                        <path transform="matrix(0.00595,0,0,-0.00595,0,0)"
                                                                                d="M263 689C108 689 29 566 29 324C29 207 50 106 85 57C120 8 176 -20 238 -20C389 -20 465 110 465 366C465 585 400 689 263 689ZM245 654C342 654 381 556 381 316C381 103 343 15 251 15C154 15 113 116 113 360C113 571 150 654 245 654Z"
                                                                                stroke="rgb(0,0,0)" stroke-opacity="1"
                                                                                stroke-width="8" fill="rgb(0,0,0)"
                                                                                fill-opacity="1"></path>
                                                                </g>
                                                        </g>
                                                </g>
                                        </g>
                                </g>
                                <g>
                                        <g transform="matrix(1,0,0,1,40.015625,44.5)">
                                                <path transform="matrix(0.0085,0,0,-0.0085,0,0)"
                                                        d="M297 714L242 714L-37 -169L18 -169Z" stroke="rgb(0,0,0)"
                                                        stroke-opacity="1" stroke-width="8" fill="rgb(0,0,0)"
                                                        fill-opacity="1"></path>
                                        </g>
                                </g>
                                <g>
                                        <g transform="matrix(1,0,0,1,44.140625,44.5)">
                                                <path transform="matrix(0.0085,0,0,-0.0085,0,0)"
                                                        d="M582 103L237 692L75 692L70 664L105 662C150 660 184 615 185 606L92 102C80 40 74 32 38 28L7 25L2 -3L113 0C125 0 126 0 223 -3L228 25L186 28C146 31 137 39 137 72C137 80 138 91 140 102L220 566L558 -11L608 -11L702 542C723 655 725 659 762 662L799 664L802 691L589 692L584 664L631 662C657 661 667 654 667 638C667 631 584 116 582 103Z"
                                                        stroke="rgb(0,0,0)" stroke-opacity="1" stroke-width="8"
                                                        fill="rgb(0,0,0)" fill-opacity="1"></path>
                                        </g>
                                </g>
                        </g>
                </g>
                <g>
                        <g>
                                <g>
                                        <g transform="matrix(1,0,0,1,128,44)">
                                                <path transform="matrix(0.0085,0,0,-0.0085,0,0)"
                                                        d="M582 103L237 692L75 692L70 664L105 662C150 660 184 615 185 606L92 102C80 40 74 32 38 28L7 25L2 -3L113 0C125 0 126 0 223 -3L228 25L186 28C146 31 137 39 137 72C137 80 138 91 140 102L220 566L558 -11L608 -11L702 542C723 655 725 659 762 662L799 664L802 691L589 692L584 664L631 662C657 661 667 654 667 638C667 631 584 116 582 103Z"
                                                        stroke="rgb(0,0,0)" stroke-opacity="1" stroke-width="8"
                                                        fill="rgb(0,0,0)" fill-opacity="1"></path>
                                        </g>
                                </g>
                                <g>
                                        <g>
                                                <g>
                                                        <g>
                                                                <g transform="matrix(1,0,0,1,134.859375,46.5125)">
                                                                        <path transform="matrix(0.00595,0,0,-0.00595,0,0)"
                                                                                d="M328 111L304 94C251 56 203 36 167 36C120 36 91 73 91 133C91 158 94 185 99 214C116 218 225 248 250 259C335 296 374 342 374 404C374 451 340 482 290 482C222 496 112 423 75 349C45 299 15 180 15 113C15 35 59 -11 131 -11C188 -11 244 17 336 92ZM113 274C130 343 150 386 179 412C197 428 228 440 252 440C281 440 300 420 300 388C300 344 265 297 213 272C185 258 149 247 104 237ZM397 1C412 -7 428 -11 440 -11C473 -11 512 18 543 65L619 182L630 113C643 28 666 -11 702 -11C724 -11 756 6 788 35L837 79L828 98C792 68 767 53 751 53C736 53 723 63 713 83C704 102 693 139 688 168L670 269L705 318C752 383 779 406 810 406C826 406 838 398 843 383L857 387L872 472C860 479 851 482 842 482C802 482 762 446 700 354L663 299L657 347C645 446 618 482 559 482C533 482 511 474 502 461L444 378L461 368C491 402 511 416 530 416C563 416 585 375 602 277L613 215L573 153C530 86 496 54 468 54C453 54 442 58 440 63L429 91L409 88C409 53 401 27 397 1ZM1229 330L1252 330C1260 395 1267 432 1276 458C1252 473 1217 482 1180 482C1135 483 1062 463 1005 400C951 352 912 241 912 136C912 40 954 -11 1034 -11C1088 -11 1136 9 1191 54L1241 95L1233 115L1218 105C1146 57 1108 40 1073 40C1017 40 988 80 988 159C988 267 1023 371 1072 409C1093 425 1117 433 1148 433C1193 433 1229 414 1229 390Z"
                                                                                stroke="rgb(0,0,0)" stroke-opacity="1"
                                                                                stroke-width="8" fill="rgb(0,0,0)"
                                                                                fill-opacity="1"></path>
                                                                </g>
                                                        </g>
                                                </g>
                                        </g>
                                </g>
                                <g>
                                        <g transform="matrix(1,0,0,1,144.734375,44)">
                                                <path transform="matrix(0.0085,0,0,-0.0085,0,0)"
                                                        d="M297 714L242 714L-37 -169L18 -169Z" stroke="rgb(0,0,0)"
                                                        stroke-opacity="1" stroke-width="8" fill="rgb(0,0,0)"
                                                        fill-opacity="1"></path>
                                        </g>
                                </g>
                                <g>
                                        <g transform="matrix(1,0,0,1,148.859375,44)">
                                                <path transform="matrix(0.0085,0,0,-0.0085,0,0)"
                                                        d="M582 103L237 692L75 692L70 664L105 662C150 660 184 615 185 606L92 102C80 40 74 32 38 28L7 25L2 -3L113 0C125 0 126 0 223 -3L228 25L186 28C146 31 137 39 137 72C137 80 138 91 140 102L220 566L558 -11L608 -11L702 542C723 655 725 659 762 662L799 664L802 691L589 692L584 664L631 662C657 661 667 654 667 638C667 631 584 116 582 103Z"
                                                        stroke="rgb(0,0,0)" stroke-opacity="1" stroke-width="8"
                                                        fill="rgb(0,0,0)" fill-opacity="1"></path>
                                        </g>
                                </g>
                        </g>
                </g>
                <g>
                        <g>
                                <g>
                                        <g transform="matrix(1,0,0,1,176,164)">
                                                <path transform="matrix(0.0085,0,0,-0.0085,0,0)"
                                                        d="M390 646L463 646C541 646 577 641 580 629C583 621 585 602 584 592L580 528L608 528L635 692L544 691C456 690 388 689 353 689C316 689 252 690 166 691L71 692L53 528L82 528L97 588C102 610 109 626 115 633C121 640 159 646 196 646L308 646L222 125C206 34 204 31 164 28L113 25L109 -3L166 -2C206 -1 235 0 251 0C270 0 301 -1 340 -2L384 -3L387 25L328 28C302 29 292 37 292 58C292 67 293 74 296 93Z"
                                                        stroke="rgb(0,0,0)" stroke-opacity="1" stroke-width="8"
                                                        fill="rgb(0,0,0)" fill-opacity="1"></path>
                                        </g>
                                </g>
                                <g>
                                        <g transform="matrix(1,0,0,1,182.875,164)">
                                                <path transform="matrix(0.0085,0,0,-0.0085,0,0)"
                                                        d="M297 714L242 714L-37 -169L18 -169Z" stroke="rgb(0,0,0)"
                                                        stroke-opacity="1" stroke-width="8" fill="rgb(0,0,0)"
                                                        fill-opacity="1"></path>
                                        </g>
                                </g>
                                <g>
                                        <g transform="matrix(1,0,0,1,187,164)">
                                                <path transform="matrix(0.0085,0,0,-0.0085,0,0)"
                                                        d="M390 646L463 646C541 646 577 641 580 629C583 621 585 602 584 592L580 528L608 528L635 692L544 691C456 690 388 689 353 689C316 689 252 690 166 691L71 692L53 528L82 528L97 588C102 610 109 626 115 633C121 640 159 646 196 646L308 646L222 125C206 34 204 31 164 28L113 25L109 -3L166 -2C206 -1 235 0 251 0C270 0 301 -1 340 -2L384 -3L387 25L328 28C302 29 292 37 292 58C292 67 293 74 296 93Z"
                                                        stroke="rgb(0,0,0)" stroke-opacity="1" stroke-width="8"
                                                        fill="rgb(0,0,0)" fill-opacity="1"></path>
                                        </g>
                                </g>
                                <g>
                                        <g>
                                                <g>
                                                        <g>
                                                                <g transform="matrix(1,0,0,1,192.4375,166.5125)">
                                                                        <path transform="matrix(0.00595,0,0,-0.00595,0,0)"
                                                                                d="M342 330L365 330C373 395 380 432 389 458C365 473 330 482 293 482C248 483 175 463 118 400C64 352 25 241 25 136C25 40 67 -11 147 -11C201 -11 249 9 304 54L354 95L346 115L331 105C259 57 221 40 186 40C130 40 101 80 101 159C101 267 136 371 185 409C206 425 230 433 261 433C306 433 342 414 342 390Z"
                                                                                stroke="rgb(0,0,0)" stroke-opacity="1"
                                                                                stroke-width="8" fill="rgb(0,0,0)"
                                                                                fill-opacity="1"></path>
                                                                </g>
                                                        </g>
                                                </g>
                                        </g>
                                </g>
                        </g>
                </g>
        </svg>
</svg>